<svg width="199" height="33" fill="none" xmlns="http://www.w3.org/2000/svg"><path d="M49 26H0L25 0l24 26ZM13 13l4 4 3-4-3-3-4 3Zm4 12 3-4-3-3-4 3 4 4Zm15 0 4-4-4-3-3 3 3 4ZM28 5l-3 4 3 3 4-3-4-4ZM9 25l3-3v-1l-3-3-4 3 4 4Zm8-16 4 3 3-3-3-3V5l-4 4Zm0 8 4 4 3-4-3-3-4 3Zm16 0 3 4 4-4-4-3-3 3Zm-5-3-3 3 3 4h1l3-4-4-3Zm-15 7 3-4-3-3-4 3 4 4Zm19-4 4-4-4-3-3 3 3 4Zm-8-9 4-3-3-4h-1l-3 4 3 3Zm0 9 4-4-3-3-4 3 3 4Zm0 8 4-4-4-3-3 3 3 4Zm16 0 4-4-4-3-3 3v1l3 2v1ZM2 25h6l-3-3-3 3Zm39 0h6l-3-3-3 3Zm-17 0-3-3-3 3h6Zm9 0h6l-3-3-3 3Zm-2 0-3-3-3 3h6Zm-15 0-3-3-3 3h6ZM75 26h1V8h-1 4-1v17h7l1-1v-2h1v4H75Zm27-19a9 9 0 0 1 6 3l2 3a10 10 0 0 1-2 11 10 10 0 0 1-11 1l-3-2a9 9 0 0 1-2-6 10 10 0 0 1 2-7 10 10 0 0 1 8-3Zm0 18a8 8 0 0 0 7-5 9 9 0 0 0 0-6l-2-3-3-2-3-1-3 1a8 8 0 0 0-4 5v6l2 2 2 3h4Zm16-17h4a2 2 0 0 0-1 1v11l1 2v2l2 1h4l1-1 1-2V8h-1 3-1a2 2 0 0 0 0 1v14l-2 2-1 1a9 9 0 0 1-5 0l-2-1-1-2-1-3V8h-1Zm24 1 5 13 5-13V8h-1 3l-1 1-6 17-7-17V8h-1 4-1v1Zm23 17h-4 1V8h-1 5l4 1c1 0 2 1 2 3a5 5 0 0 1-1 3l-2 1-1 1 2 3a90 90 0 0 0 4 6h1-1l-2-1-2-1a327 327 0 0 1-6-7v8l1 1Zm-1-18v8h2l1-1h2l1-1v-4l-1-1h-2l-2-1h-1Zm17 18h1V8h-1 11v2l-1-1h-7v7h5l1-1 1-1v4l-1-1h-6v8h7a2 2 0 0 0 1-2h1v3h-12Z" fill="#fff"/></svg>